<?xml version="1.0" encoding="utf-8"?>
<!-- Generator: Adobe Illustrator 16.0.4, SVG Export Plug-In . SVG Version: 6.00 Build 0)  -->
<!DOCTYPE svg PUBLIC "-//W3C//DTD SVG 1.1//EN" "http://www.w3.org/Graphics/SVG/1.1/DTD/svg11.dtd">
<svg version="1.1" id="Layer_1" xmlns="http://www.w3.org/2000/svg" xmlns:xlink="http://www.w3.org/1999/xlink" x="0px" y="0px"
	 width="2999.945px" height="3000px" viewBox="0 0 2999.945 3000" enable-background="new 0 0 2999.945 3000" xml:space="preserve">
<g>
	<g>
		<g>
			<path fill="#B1C635" d="M1499.982,0c828.438,0,1499.99,671.565,1499.99,1499.99c0,828.43-671.553,1500.01-1499.99,1500.01
				C671.546,3000-0.027,2328.42-0.027,1499.99C-0.026,671.565,671.545,0,1499.982,0z"/>
		</g>
	</g>
	<g>
		<g>
			<polygon fill="#EFEFEF" points="2019.611,2408.869 980.345,2408.869 720.544,772.088 2279.406,772.088 			"/>
		</g>
		<g>
			<polygon fill="#E0E0E0" points="2294.943,931.862 705.017,931.862 657.644,682.39 2342.316,682.39 			"/>
		</g>
		<g>
			<g>
				<g>
					<g>
						<g>
							<path fill="#B1C635" d="M1178.391,1909.203h-0.044c4.717,2.812,10.488,4.805,17.217,5.742l0,0
								C1188.835,1914.008,1183.107,1912.017,1178.391,1909.203z"/>
						</g>
					</g>
					<g>
						<g>
							<path fill="#B1C635" d="M1195.563,1914.946c-5.737-0.978-11.553-2.969-17.173-5.742
								C1183.107,1912.017,1188.835,1914.008,1195.563,1914.946z"/>
						</g>
					</g>
					<g>
						<g>
							<path fill="#B1C635" d="M1098.841,1523.525l62.075,36.104l-79.297,137.344c-7.725,13.388-7.725,36.004,0,49.422
								l74.302,128.648c1.201-7.031,3.979-14.315,8.188-21.699l126.934-218.938l61.885,35.762l-53.672-200.392L1098.841,1523.525z"
								/>
						</g>
					</g>
					<g>
						<g>
							<path fill="#B1C635" d="M1195.563,1914.946c1.206,0.176,2.324,0.332,3.389,0.43v-0.039
								C1197.864,1915.239,1196.653,1915.121,1195.563,1914.946z"/>
						</g>
					</g>
					<g>
						<g>
							<path fill="#B1C635" d="M1163.738,1882.719c-0.239,11.388,4.951,20.724,14.609,26.484h0.044
								C1168.688,1903.442,1163.499,1894.106,1163.738,1882.719z"/>
						</g>
					</g>
					<g>
						<g>
							<path fill="#B1C635" d="M1198.929,1915.336c-1.064-0.098-2.275-0.215-3.389-0.391l0,0
								C1196.653,1915.121,1197.864,1915.239,1198.929,1915.336L1198.929,1915.336z"/>
						</g>
					</g>
					<g>
						<g>
							<path fill="#B1C635" d="M1175.837,1857.582c-5.137,8.965-7.681,17.461-7.817,25.137
								c-0.278,11.388,4.946,20.724,14.663,26.484c5.586,2.773,11.367,4.766,17.173,5.742c1.108,0.176,2.266,0.293,3.389,0.391
								l11.982,0.273h217.563v-60.996v-106.412h-193.315L1175.837,1857.582z"/>
						</g>
					</g>
				</g>
				<g>
					<g>
						<g>
							<path fill="#B1C635" d="M1504.699,1438.838l200.146,54.307l54.307-200.272l-62.402,35.479l-78.916-137.607
								c-7.676-13.403-27.217-24.795-42.764-24.814l-148.442-0.498c5.444,4.614,10.371,10.684,14.57,18.096l125.502,219.714
								L1504.699,1438.838z"/>
						</g>
					</g>
					<g>
						<g>
							<path fill="#B1C635" d="M1268.42,1373.35l129.883,75.497l90.332-155.409l-60.181-105.703
								c-4.224-7.412-9.312-13.018-14.663-16.294c-7.124-4.36-14.561-4.497-21.743-0.518c-3.979,2.646-8.003,6.23-11.104,9.922
								c-0.498,0.635-1.064,1.445-1.558,2.207l-6.074,9.829L1268.42,1373.35z"/>
						</g>
					</g>
				</g>
				<g>
					<g>
						<g>
							<path fill="#B1C635" d="M1924.183,1712.605C1924.183,1712.625,1924.183,1712.625,1924.183,1712.605
								c0.049-5.438-1.182-11.442-3.74-17.741c-0.098,0.028,0,0.028,0,0.028C1923.001,1701.162,1924.23,1707.168,1924.183,1712.605z
								"/>
						</g>
					</g>
					<g>
						<g>
							<path fill="#B1C635" d="M1920.441,1694.893c2.031,5.431,3.281,11.445,3.74,17.713
								C1924.23,1707.168,1923.001,1701.162,1920.441,1694.893z"/>
						</g>
					</g>
					<g>
						<g>
							<path fill="#B1C635" d="M1484.075,1831.02l147.871,145.605l-0.322-71.836l158.595-1.25
								c15.449-0.137,34.951-11.562,42.627-25.059l73.231-129.166c-6.709,2.49-14.315,3.838-22.852,3.877l-253.105,1.582
								l-0.557-71.541L1484.075,1831.02z"/>
						</g>
					</g>
					<g>
						<g>
							<path fill="#B1C635" d="M1920.441,1694.864c-0.487-1.104-0.928-2.147-1.416-3.192l-0.088,0.098
								C1919.515,1692.812,1919.954,1693.848,1920.441,1694.864z"/>
						</g>
					</g>
					<g>
						<g>
							<path fill="#B1C635" d="M1908.684,1738.719c10-5.596,15.381-14.805,15.498-26.094c0,0,0,0,0-0.02
								C1924.143,1723.914,1918.684,1733.075,1908.684,1738.719z"/>
						</g>
					</g>
					<g>
						<g>
							<path fill="#B1C635" d="M1918.938,1691.768c0.527,1.045,1.017,2.08,1.504,3.125c0,0-0.098,0,0-0.028
								C1919.954,1693.848,1919.515,1692.812,1918.938,1691.768L1918.938,1691.768z"/>
						</g>
					</g>
					<g>
						<g>
							<path fill="#B1C635" d="M1883.156,1742.508c10.312-0.117,18.966-2.236,25.527-5.986c10-5.575,15.459-14.805,15.498-26.063
								c-0.488-6.248-1.709-12.303-3.74-17.692c-0.487-1.094-0.928-2.109-1.504-3.174l-5.791-10.431l-110.254-187.53l-52.461,30.878
								l-91.768,53.957l97.93,166.618L1883.156,1742.508z"/>
						</g>
					</g>
				</g>
			</g>
		</g>
	</g>
</g>
</svg>
