<?xml version="1.0" encoding="utf-8"?>
<!-- Generator: Adobe Illustrator 16.0.4, SVG Export Plug-In . SVG Version: 6.00 Build 0)  -->
<!DOCTYPE svg PUBLIC "-//W3C//DTD SVG 1.1//EN" "http://www.w3.org/Graphics/SVG/1.1/DTD/svg11.dtd">
<svg version="1.1" id="Layer_1" xmlns="http://www.w3.org/2000/svg" xmlns:xlink="http://www.w3.org/1999/xlink" x="0px" y="0px"
	 width="300px" height="300.006px" viewBox="0 0 300 300.006" enable-background="new 0 0 300 300.006" xml:space="preserve">
<g>
	<g>
		<g>
			<circle fill="#B1C635" cx="150" cy="150.003" r="150"/>
		</g>
	</g>
	<g>
		<g>
			<polygon fill="#EFEFEF" points="201.962,240.89 98.036,240.89 72.056,77.212 227.941,77.212 			"/>
		</g>
		<g>
			<polygon fill="#E0E0E0" points="229.496,93.19 70.503,93.19 65.766,68.242 234.233,68.242 			"/>
		</g>
		<g>
			<g>
				<g>
					<g>
						<g>
							<path fill="#B1C635" d="M117.84,190.924h-0.004c0.472,0.281,1.049,0.479,1.722,0.573l0,0
								C118.885,191.405,118.312,191.206,117.84,190.924z"/>
						</g>
					</g>
					<g>
						<g>
							<path fill="#B1C635" d="M119.558,191.498c-0.574-0.099-1.155-0.296-1.717-0.573
								C118.312,191.206,118.885,191.405,119.558,191.498z"/>
						</g>
					</g>
					<g>
						<g>
							<path fill="#B1C635" d="M109.885,152.356l6.208,3.609l-7.93,13.734c-0.772,1.339-0.772,3.601,0,4.941l7.43,12.864
								c0.12-0.703,0.398-1.433,0.819-2.169l12.693-21.895l6.188,3.576l-5.367-20.04L109.885,152.356z"/>
						</g>
					</g>
					<g>
						<g>
							<path fill="#B1C635" d="M119.558,191.498c0.121,0.019,0.232,0.034,0.339,0.044v-0.005
								C119.788,191.528,119.666,191.517,119.558,191.498z"/>
						</g>
					</g>
					<g>
						<g>
							<path fill="#B1C635" d="M116.375,188.276c-0.024,1.138,0.495,2.072,1.461,2.647h0.004
								C116.87,190.349,116.351,189.414,116.375,188.276z"/>
						</g>
					</g>
					<g>
						<g>
							<path fill="#B1C635" d="M119.894,191.537c-0.106-0.009-0.228-0.021-0.339-0.039l0,0
								C119.666,191.517,119.788,191.528,119.894,191.537L119.894,191.537z"/>
						</g>
					</g>
					<g>
						<g>
							<path fill="#B1C635" d="M117.585,185.761c-0.514,0.897-0.768,1.746-0.782,2.516c-0.028,1.138,0.495,2.072,1.466,2.647
								c0.559,0.277,1.137,0.476,1.717,0.573c0.111,0.02,0.227,0.029,0.339,0.039l1.198,0.027h21.756v-6.1v-10.641h-19.33
								L117.585,185.761z"/>
						</g>
					</g>
				</g>
				<g>
					<g>
						<g>
							<path fill="#B1C635" d="M150.471,143.887l20.015,5.431l5.431-20.027l-6.239,3.548l-7.893-13.761
								c-0.768-1.34-2.723-2.479-4.276-2.481l-14.844-0.05c0.544,0.461,1.037,1.068,1.457,1.81l12.55,21.972L150.471,143.887z"/>
						</g>
					</g>
					<g>
						<g>
							<path fill="#B1C635" d="M126.843,137.338l12.988,7.55l9.033-15.542l-6.018-10.57c-0.422-0.741-0.931-1.302-1.466-1.629
								c-0.712-0.436-1.456-0.45-2.174-0.052c-0.398,0.265-0.8,0.623-1.11,0.992c-0.05,0.063-0.106,0.145-0.156,0.221l-0.607,0.983
								L126.843,137.338z"/>
						</g>
					</g>
				</g>
				<g>
					<g>
						<g>
							<path fill="#B1C635" d="M192.419,171.264C192.419,171.267,192.419,171.267,192.419,171.264
								c0.005-0.544-0.118-1.145-0.374-1.774c-0.01,0.004,0,0.004,0,0.004C192.301,170.12,192.424,170.72,192.419,171.264z"/>
						</g>
					</g>
					<g>
						<g>
							<path fill="#B1C635" d="M192.045,169.493c0.203,0.543,0.328,1.145,0.374,1.771
								C192.424,170.72,192.301,170.12,192.045,169.493z"/>
						</g>
					</g>
					<g>
						<g>
							<path fill="#B1C635" d="M148.408,183.106l14.787,14.56l-0.031-7.185l15.859-0.125c1.545-0.014,3.494-1.155,4.263-2.504
								l7.323-12.918c-0.672,0.25-1.432,0.385-2.285,0.389l-25.311,0.158l-0.057-7.154L148.408,183.106z"/>
						</g>
					</g>
					<g>
						<g>
							<path fill="#B1C635" d="M192.045,169.489c-0.049-0.109-0.093-0.215-0.143-0.318l-0.008,0.01
								C191.953,169.285,191.997,169.388,192.045,169.489z"/>
						</g>
					</g>
					<g>
						<g>
							<path fill="#B1C635" d="M190.87,173.876c1-0.561,1.538-1.48,1.55-2.609c0,0,0,0,0-0.002
								C192.416,172.396,191.87,173.312,190.87,173.876z"/>
						</g>
					</g>
					<g>
						<g>
							<path fill="#B1C635" d="M191.895,169.18c0.054,0.104,0.103,0.208,0.15,0.312c0,0-0.01,0,0-0.003
								C191.997,169.388,191.953,169.285,191.895,169.18L191.895,169.18z"/>
						</g>
					</g>
					<g>
						<g>
							<path fill="#B1C635" d="M188.316,174.254c1.031-0.012,1.896-0.224,2.554-0.599c1-0.559,1.546-1.48,1.55-2.606
								c-0.049-0.625-0.171-1.229-0.374-1.771c-0.049-0.108-0.093-0.211-0.149-0.316l-0.58-1.043l-11.025-18.752l-5.246,3.088
								l-9.177,5.396l9.793,16.662L188.316,174.254z"/>
						</g>
					</g>
				</g>
			</g>
		</g>
	</g>
</g>
</svg>
